<?xml version="1.0" encoding="UTF-8" standalone="no"?>
<svg
   xmlns:dc="http://purl.org/dc/elements/1.1/"
   xmlns:cc="http://creativecommons.org/ns#"
   xmlns:rdf="http://www.w3.org/1999/02/22-rdf-syntax-ns#"
   xmlns:svg="http://www.w3.org/2000/svg"
   xmlns="http://www.w3.org/2000/svg"
   xmlns:sodipodi="http://sodipodi.sourceforge.net/DTD/sodipodi-0.dtd"
   xmlns:inkscape="http://www.inkscape.org/namespaces/inkscape"
   width="24"
   height="24"
   viewBox="0 0 24 24"
   version="1.1"
   id="svg4"
   sodipodi:docname="iconmonstr-gear-6.svg"
   inkscape:version="0.92.5 (2060ec1f9f, 2020-04-08)">
  <metadata
     id="metadata10">
    <rdf:RDF>
      <cc:Work
         rdf:about="">
        <dc:format>image/svg+xml</dc:format>
        <dc:type
           rdf:resource="http://purl.org/dc/dcmitype/StillImage" />
      </cc:Work>
    </rdf:RDF>
  </metadata>
  <defs
     id="defs8" />
  <sodipodi:namedview
     pagecolor="#ffffff"
     bordercolor="#666666"
     borderopacity="1"
     objecttolerance="10"
     gridtolerance="10"
     guidetolerance="10"
     inkscape:pageopacity="0"
     inkscape:pageshadow="2"
     inkscape:window-width="1059"
     inkscape:window-height="685"
     id="namedview6"
     showgrid="false"
     inkscape:zoom="9.8333333"
     inkscape:cx="12"
     inkscape:cy="12"
     inkscape:window-x="0"
     inkscape:window-y="0"
     inkscape:window-maximized="0"
     inkscape:current-layer="svg4" />
  <path
     d="M24 13.616v-3.232l-2.869-1.02c-.198-.687-.472-1.342-.811-1.955l1.308-2.751-2.285-2.285-2.751 1.307c-.613-.339-1.269-.613-1.955-.811l-1.021-2.869h-3.232l-1.021 2.869c-.686.198-1.342.471-1.955.811l-2.751-1.308-2.285 2.285 1.308 2.752c-.339.613-.614 1.268-.811 1.955l-2.869 1.02v3.232l2.869 1.02c.197.687.472 1.342.811 1.955l-1.308 2.751 2.285 2.286 2.751-1.308c.613.339 1.269.613 1.955.811l1.021 2.869h3.232l1.021-2.869c.687-.198 1.342-.472 1.955-.811l2.751 1.308 2.285-2.286-1.308-2.751c.339-.613.613-1.268.811-1.955l2.869-1.02zm-12 2.384c-2.209 0-4-1.791-4-4s1.791-4 4-4 4 1.791 4 4-1.791 4-4 4z"
     id="path2"
     style="fill:#ffffff;fill-opacity:1" />
</svg>
